# xmcd
#
# Track frame offsets:
#	150
#	15675
#	35475
#	52425
#	65478
#	87978
#
# Disc length: 1387 seconds
#
# Revision: 7
# Processed by: cddbd v1.5.2PL0 Copyright (c) Steve Scherf et al.
# Submitted via: EasyCDDAExtractor 15.3.0.1
#
DISCID=51056906
DTITLE=Lucero - Lazos De Amor
DYEAR=1995
DGENRE=Latin
TTITLE0=Lazos De Amor
TTITLE1=Lazos De Amor (Instrumental Sax)
TTITLE2=Volvamos A Empezar
TTITLE3=Lazos De Amor (Reggae)
TTITLE4=Dejame Ir (Remix Radio)
TTITLE5=Como Perro Al Sol
EXTD=
EXTT0=
EXTT1=
EXTT2=
EXTT3=
EXTT4=
EXTT5=
PLAYORDER=
